<svg width="1289" height="1007" viewBox="0 0 1289 1007" fill="none" xmlns="http://www.w3.org/2000/svg">
<path d="M2.0332 4.10613C106.741 4.10613 222.269 -10.7935 314.076 49.2985C364.03 81.996 399.621 111.812 432.5 162.5C454.716 196.75 468.844 260.435 461.5 304.5C456.13 336.72 436.24 367 387.5 383.107C345.564 396.965 298 383.107 298 383.107C240.302 370.078 195.856 309.058 207 260.196C230.883 155.48 348.57 123.388 447.501 115.294C590.083 103.628 718.333 164.392 821.235 260.196C956.184 385.838 1049.4 520.51 1126.5 686.5C1174.62 790.098 1220.06 911.379 1286.79 1004.79" stroke="#969696" stroke-width="3" stroke-linecap="round" stroke-dasharray="6 6"/>
</svg>
