<svg width="206" height="123" viewBox="0 0 206 123" fill="none" xmlns="http://www.w3.org/2000/svg">
<path d="M2.0332 2.66315C18.4962 2.66315 36.6605 0.894206 51.0952 8.02856C58.9495 11.9105 64.5454 15.4504 69.7148 21.4683C73.2078 25.5345 75.4292 33.0955 74.2745 38.3271C73.4301 42.1524 70.3029 45.7473 62.6396 47.6596C56.0461 49.3049 48.5676 47.6596 48.5676 47.6596C39.4959 46.1128 32.5077 38.8682 34.2598 33.0672C38.0148 20.6349 56.5187 16.8248 72.0734 15.8638C94.4915 14.4788 114.656 21.6929 130.835 33.0672C152.053 47.9839 166.708 63.9727 178.831 83.6796C186.398 95.9792 193.542 110.378 204.033 121.469" stroke="#969696" stroke-width="2" stroke-linecap="round" stroke-dasharray="6 6"/>
</svg>
