<svg width="238" height="148" viewBox="0 0 238 148" fill="none" xmlns="http://www.w3.org/2000/svg">
<path d="M237 147C210.5 141.5 214.398 136.978 206.831 124.679C194.708 104.972 180.053 88.9829 158.835 74.0662C142.656 62.6919 122.491 55.4777 100.073 56.8628C84.5187 57.8238 66.0149 61.6339 62.2599 74.0662C60.5077 79.8672 67.496 87.1118 76.5677 88.6586C76.5677 88.6586 84.0461 90.3039 90.6396 88.6586C98.303 86.7463 101.43 83.1514 102.274 79.3261C103.429 74.0945 101.208 66.5335 97.7149 62.4673C92.5454 56.4494 92.2298 54.3204 65.0001 45.999C37.7703 37.6776 65.0001 45.999 37.7703 37.6776C5.78671 27.9035 1.5 1.5 1.5 1.5" stroke="#969696" stroke-width="2" stroke-linecap="round" stroke-dasharray="6 6"/>
</svg>
