<svg xmlns="http://www.w3.org/2000/svg" viewBox="0 0 15.85 11.32"><title>презентация oversize</title><g id="Слой_1" data-name="Слой 1"><path d="M15.46.59A1.64,1.64,0,0,0,14.15,0H1.71A1.69,1.69,0,0,0,0,1.47s0,0,0,0v8.3c0,.13.06.26.1.39a1.63,1.63,0,0,0,1.41,1.1,11.42,11.42,0,0,0,1.17,0H14.15a1.69,1.69,0,0,0,1.68-1.46,1.27,1.27,0,0,0,0-.28v-8A1.45,1.45,0,0,0,15.46.59ZM1.7.9H14.22L14.16,1,9.87,5.26,8.19,6.94a.3.3,0,0,1-.47,0L3.94,3.16C3.22,2.43,2.49,1.71,1.76,1L1.69.92Zm-.29,9.47a.11.11,0,0,1-.13,0A.6.6,0,0,1,1,9.83V1.39L5.68,6.11l-.43.42Zm1.11.1L6.29,6.7l.38.37L7.73,8.15a.29.29,0,0,0,.45,0L9.51,6.82l.06-.08,3.73,3.73ZM15,9.56a1.76,1.76,0,0,1-.07.45.57.57,0,0,1-.38.39.09.09,0,0,1-.13,0L12.21,8.16l-2-1.95-.06-.06C11.8,4.55,13.4,3,15,1.35V9.56Z"/></g></svg>