<svg width="51" height="73" viewBox="0 0 51 73" fill="none" xmlns="http://www.w3.org/2000/svg">
<g clip-path="url(#clip0_103_6)">
<path d="M24.14 0H26.83C26.9645 0.041597 27.1014 0.0749918 27.24 0.1C31.4614 0.350287 35.5451 1.69429 39.09 4C44.3824 7.31544 48.2423 12.4917 49.91 18.51C51.2851 23.0732 51.1341 27.9604 49.48 32.43C47.945 36.6021 46.0929 40.6506 43.94 44.54C38.7455 53.7756 32.9671 62.6703 26.64 71.17L25.46 72.75C24.3 71.14 23.16 69.6 22.05 68.04C15.7756 59.4656 10.1404 50.4412 5.19 41.04C3.3286 37.5426 1.85004 33.8546 0.78 30.04C0.41 28.67 0.25 27.18 0 25.72V25.15C0.0546123 24.8992 0.0946792 24.6454 0.12 24.39C0.274269 19.127 2.11855 14.0535 5.38 9.92C7.36072 7.30199 9.84036 5.10221 12.6758 3.44764C15.5112 1.79307 18.6463 0.716473 21.9 0.28C22.64 0.17 23.39 0.09 24.14 0ZM16.14 25.46C16.1499 27.3092 16.708 29.114 17.7436 30.646C18.7792 32.1781 20.2458 33.3687 21.9581 34.0672C23.6703 34.7657 25.5512 34.9408 27.363 34.5703C29.1748 34.1998 30.836 33.3005 32.1366 31.9859C33.4372 30.6713 34.3188 29.0005 34.6698 27.1849C35.0209 25.3693 34.8257 23.4904 34.1089 21.7857C33.3921 20.081 32.1859 18.6272 30.6429 17.608C29.0998 16.5889 27.2892 16.0501 25.44 16.06C22.9584 16.0732 20.5834 17.0704 18.8361 18.8327C17.0888 20.5949 16.112 22.9784 16.12 25.46H16.14Z" fill="#CCCCCC"/>
</g>
<defs>
<clipPath id="clip0_103_6">
<rect width="50.84" height="72.75" fill="white"/>
</clipPath>
</defs>
</svg>
