<svg xmlns="http://www.w3.org/2000/svg" viewBox="0 0 59 59"><g><path d="M24.78,15.88H9c-.36,0-.51.14-.51.5V30.05c0,.4.13.52.53.52H40.51a1.23,1.23,0,0,0,.27,0,.34.34,0,0,0,.31-.36c0-.16,0-.32,0-.48q0-6.63,0-13.25c0-.46-.13-.58-.59-.58H24.78Z"/><path d="M41.58,20.11l.26,0c1.2,0,2.39,0,3.59.07a16.89,16.89,0,0,1,2.32.35,3,3,0,0,1,.94.41,3.23,3.23,0,0,1,1.16,1.42A11.27,11.27,0,0,1,51,25.93c.13,1,.27,2.09.31,3.13.07,1.91.06,3.81.09,5.72,0,.13,0,.25,0,.38H49.71a3.45,3.45,0,0,0-3.22-3.38,3.29,3.29,0,0,0-2.26.71,3.43,3.43,0,0,0-1.33,2.69H40.54v.32c0,.45-.14.59-.6.59H32.69a.44.44,0,0,1-.49-.5v-.42H26.88a3.15,3.15,0,0,0-3-3.15,3.06,3.06,0,0,0-2,.63,3.14,3.14,0,0,0-1.27,2.51h-1.3A3,3,0,0,0,18.4,33a3.14,3.14,0,0,0-4.29-.18A3.17,3.17,0,0,0,13,35.16H11.09V33.93c.43,0,.85,0,1.27,0,.26,0,.44,0,.52-.3a4,4,0,0,1,.25-.51H9.79V31H41.58Zm7.81,6.24-.27,0V23.22h.25A1.55,1.55,0,0,0,49,21.77a.59.59,0,0,0-.34-.15c-.58-.06-1.17-.12-1.75-.15s-1.43,0-2.15-.07h-.11l.09,4.44H45c.67,0,1.33.07,2,.08a1,1,0,0,1,.87.5.34.34,0,0,0,.22.13l1.29.08ZM27.12,33.84a.24.24,0,0,0,.16.09h4.84l.06,0v-.77H26.77c.12.25.23.48.35.7m23.42-7.13a11,11,0,0,0-.81-3.42v3.37l.81.05m0,3.15c-.44-.1-.81.46-.83.93s.36,1.11.83,1Zm-31,4c.05.1.75.12.79,0s.23-.47.35-.73h-1.5l.36.71m22-.49v-.22h-1v.77h1Zm-7.76,0a.52.52,0,0,0,.49-.52.49.49,0,0,0-.49-.49.5.5,0,0,0-.51.5.53.53,0,0,0,.51.51"/><path d="M46.31,32.34a2.81,2.81,0,1,1-2.81,2.83,2.81,2.81,0,0,1,2.81-2.83M48,35.16a1.71,1.71,0,1,0-1.71,1.69A1.68,1.68,0,0,0,48,35.16"/><path d="M23.75,38a2.81,2.81,0,1,1,2.8-2.81A2.81,2.81,0,0,1,23.75,38M22,35.15a1.71,1.71,0,1,0,3.42,0,1.71,1.71,0,0,0-3.42,0"/><path d="M16.22,32.34a2.81,2.81,0,1,1-2.87,2.8,2.82,2.82,0,0,1,2.87-2.8m1.64,2.81a1.71,1.71,0,1,0-1.7,1.7,1.69,1.69,0,0,0,1.7-1.7"/><path d="M46.32,34.36a.8.8,0,1,0,0,1.59.79.79,0,0,0,.78-.8.77.77,0,0,0-.78-.79"/><path d="M45.28,36.05c.06-.08.17-.17.16-.25a.27.27,0,0,0-.2-.19.31.31,0,0,0-.21.19c0,.08.1.17.16.25Z"/><path d="M45.64,36.41c.09.05.17.15.25.14a.29.29,0,0,0,.21-.19.17.17,0,0,0-.22-.19c-.09,0-.16.1-.24.15v.09"/><path d="M47.62,35.76c-.08,0-.16-.16-.23-.15a.31.31,0,0,0-.2.2.16.16,0,0,0,.19.2c.09,0,.16-.1.24-.15v-.1"/><path d="M47.58,35.22c.05-.08.14-.15.15-.24a.17.17,0,0,0-.2-.21.32.32,0,0,0-.2.21c0,.07.1.16.16.24h.09"/><path d="M45.48,34a.65.65,0,0,0-.16.22c0,.15.09.22.2.21a.28.28,0,0,0,.19-.19c0-.07-.09-.16-.13-.24h-.1"/><path d="M46.87,34.3c.09.05.18.14.25.13a.32.32,0,0,0,.18-.21.16.16,0,0,0-.21-.18.65.65,0,0,0-.22.16v.1"/><path d="M47,36.41c0-.19-.1-.25-.23-.25s-.22.08-.2.19a.29.29,0,0,0,.2.2c.06,0,.15-.09.23-.14"/><path d="M45.08,35.18c.14,0,.24-.08.22-.21s-.13-.14-.2-.21-.18.13-.2.21.05.2.18.21"/><path d="M46.09,34c.07,0,.16.15.23.14a.25.25,0,0,0,.19-.18.17.17,0,0,0-.19-.21,1,1,0,0,0-.23.15V34"/><path d="M23,35.15a.76.76,0,0,0,.77.8.8.8,0,0,0,.81-.8.82.82,0,0,0-.81-.8.79.79,0,0,0-.77.8"/><path d="M24.12,36.12c-.06.08-.17.17-.16.24a.2.2,0,0,0,.4,0c0-.07-.09-.15-.14-.23Z"/><path d="M23.15,34.3c0-.22-.1-.29-.23-.26s-.18.15-.17.2a.29.29,0,0,0,.2.19c.07,0,.16-.1.2-.13"/><path d="M24.57,35.86c.08.06.17.16.25.15A.29.29,0,0,0,25,35.8c0-.07-.13-.18-.21-.19s-.15.1-.23.16v.09"/><path d="M22.59,35.18s.13-.13.12-.2-.12-.15-.18-.22-.19.12-.21.2,0,.23.27.22"/><path d="M24.72,35a1.05,1.05,0,0,0,.24.15.18.18,0,0,0,.2-.22.26.26,0,0,0-.22-.18c-.07,0-.15.1-.22.16V35"/><path d="M22.43,35.85c.08.06.14.14.23.16a.16.16,0,0,0,.2-.19.31.31,0,0,0-.19-.21c-.06,0-.15.09-.23.15a.28.28,0,0,0,0,.09"/><path d="M23.68,33.72c-.05.08-.15.17-.13.24s.13.13.2.2.17-.14.18-.22-.1-.15-.16-.22Z"/><path d="M24.74,34.31c0-.22-.09-.3-.21-.27s-.14.13-.21.2.14.18.22.19.16-.09.2-.12"/><path d="M23.36,36.12c-.2,0-.26.13-.23.25s.12.13.18.19.18-.13.19-.21-.09-.15-.14-.23"/><path d="M15.36,35.15a.8.8,0,1,0,.78-.79.79.79,0,0,0-.78.79"/><path d="M17.37,34.68c-.1.13-.21.23-.2.29a.32.32,0,0,0,.22.2.17.17,0,0,0,.2-.21c0-.09-.12-.15-.22-.28"/><path d="M14.84,35.87a.69.69,0,0,0,.25.14.18.18,0,0,0,.2-.22.33.33,0,0,0-.22-.18c-.07,0-.15.11-.23.17Z"/><path d="M17.23,35.52c-.1.13-.2.21-.2.29s.11.18.19.2a.17.17,0,0,0,.21-.2c0-.09-.11-.16-.2-.29"/><path d="M14.72,34.93c0,.19.11.29.24.24a.27.27,0,0,0,.17-.22.27.27,0,0,0-.22-.17c-.06,0-.14.1-.19.15"/><path d="M16.39,34c0-.19-.1-.25-.23-.25A.16.16,0,0,0,16,34a.27.27,0,0,0,.2.19c.06,0,.15-.09.22-.14"/><path d="M15.5,36.42c.08,0,.17.14.24.13a.33.33,0,0,0,.2-.2c0-.12-.08-.2-.22-.19s-.2.07-.22.26"/><path d="M17,34c-.16,0-.23.08-.21.19a.33.33,0,0,0,.18.2c.12,0,.21,0,.21-.19S17.09,34,17,34"/><path d="M16.78,36.36a.17.17,0,0,0-.19-.2c-.14,0-.24.08-.21.21s.12.16.19.18a.16.16,0,0,0,.21-.19"/><path d="M15.13,34.19c0,.2.12.25.24.25a.17.17,0,0,0,.18-.2c0-.13-.05-.23-.19-.2a1,1,0,0,0-.23.15"/></g></svg>