<svg width="606" height="146" viewBox="0 0 606 146" fill="none" xmlns="http://www.w3.org/2000/svg">
<g clip-path="url(#clip0_234_125)">
<mask id="mask0_234_125" style="mask-type:alpha" maskUnits="userSpaceOnUse" x="510" y="6" width="71" height="131">
<rect width="71" height="131" transform="translate(510 6)" fill="black"/>
</mask>
<g mask="url(#mask0_234_125)">
<path d="M535.093 83.8903C535.093 83.8903 510 87.3103 510 71.3403C510 55.3703 526.362 45.1003 526.362 39.3903C526.362 33.6803 520.911 14.2903 529.632 14.2903C538.353 14.2903 540.543 8.59029 543.814 2.88029C547.084 -2.82971 558.005 0.600291 559.095 7.44029C560.185 14.2803 574.367 10.8703 575.457 14.2903C576.547 17.7103 579.817 31.4103 583.088 36.0003C586.358 40.5903 585.268 52.0003 584.178 60.0003C583.088 68.0003 588.548 48.5903 588.548 66.8503C588.548 85.1103 576.547 83.9603 576.547 83.9603L535.093 83.8903Z" fill="#E7E7E6"/>
<path d="M545.494 84H540.493V131H545.494V84Z" fill="#E7E7E6"/>
<path d="M564.496 106C564.496 106 527.492 94.2801 527.492 82.5701C527.492 70.8601 543.813 63.3301 543.813 59.1501C543.813 54.9701 538.363 40.7401 547.094 40.7401C555.825 40.7401 558.005 36.5601 561.275 32.3801C564.546 28.2001 575.457 30.7001 576.547 35.7201C577.637 40.7401 591.818 38.2301 592.909 40.7201C593.999 43.2101 597.269 53.2701 600.539 56.6201C603.81 59.9701 602.6 62.6201 601.539 68.4501C600.479 74.2801 606.01 65.8401 606.01 79.2301C606.01 89.2301 598.679 92.5401 591.508 93.0001C588.788 93.1701 580.567 99.2101 578.507 101L564.496 106Z" fill="#CCCCCC"/>
<path d="M569.496 94H564.496V131H569.496V94Z" fill="#CCCCCC"/>
</g>
</g>
<g clip-path="url(#clip1_234_125)">
<path d="M351.32 131.1C357.804 131.1 363.06 125.844 363.06 119.36C363.06 112.876 357.804 107.62 351.32 107.62C344.836 107.62 339.58 112.876 339.58 119.36C339.58 125.844 344.836 131.1 351.32 131.1Z" fill="#333434"/>
<path d="M419.72 131.1C426.204 131.1 431.46 125.844 431.46 119.36C431.46 112.876 426.204 107.62 419.72 107.62C413.236 107.62 407.98 112.876 407.98 119.36C407.98 125.844 413.236 131.1 419.72 131.1Z" fill="#333434"/>
<path d="M314.85 102.32H166.96V112.64H314.85V102.32Z" fill="#333434"/>
<path d="M395.13 96.1299H313.33V103.36H395.13V96.1299Z" fill="#333434"/>
<path d="M395.13 104.19H313.33V105.68H395.13V104.19Z" fill="#333434"/>
<path d="M399.55 123.41H365.22V124.9H399.55V123.41Z" fill="#676767"/>
<path d="M447.88 85.3197V111.83C447.885 112.245 447.808 112.657 447.652 113.042C447.497 113.427 447.266 113.777 446.974 114.072C446.682 114.367 446.334 114.601 445.95 114.761C445.567 114.92 445.155 115.001 444.74 115H437.55C436.92 114.997 436.306 114.804 435.787 114.448C435.268 114.091 434.869 113.586 434.64 113C433.858 111.023 432.657 109.24 431.121 107.771C429.585 106.302 427.749 105.183 425.74 104.49C418.86 101.85 412 106.3 409.68 108C409.132 108.41 408.465 108.631 407.78 108.63H403C401.197 108.627 399.469 107.91 398.195 106.635C396.92 105.36 396.203 103.632 396.2 101.83V67.3497C396.199 66.5444 396.356 65.7466 396.664 65.0023C396.971 64.258 397.423 63.5817 397.992 63.0122C398.562 62.4427 399.238 61.9913 399.983 61.6837C400.727 61.3761 401.525 61.2184 402.33 61.2197H429.73C430.759 61.218 431.772 61.4765 432.674 61.9713C433.576 62.4661 434.338 63.1811 434.89 64.0497L437.12 67.5397L447.35 83.6397C447.691 84.1341 447.875 84.7193 447.88 85.3197Z" fill="#F8EA2E" stroke="#1E1E1C" stroke-width="0.76" stroke-miterlimit="10"/>
<path d="M189.11 130.34C194.749 130.34 199.32 125.769 199.32 120.13C199.32 114.491 194.749 109.92 189.11 109.92C183.471 109.92 178.9 114.491 178.9 120.13C178.9 125.769 183.471 130.34 189.11 130.34Z" fill="#333434"/>
<path d="M214.32 130.34C219.959 130.34 224.53 125.769 224.53 120.13C224.53 114.491 219.959 109.92 214.32 109.92C208.681 109.92 204.11 114.491 204.11 120.13C204.11 125.769 208.681 130.34 214.32 130.34Z" fill="#333434"/>
<path d="M237.23 130.34C242.869 130.34 247.44 125.769 247.44 120.13C247.44 114.491 242.869 109.92 237.23 109.92C231.591 109.92 227.02 114.491 227.02 120.13C227.02 125.769 231.591 130.34 237.23 130.34Z" fill="#333434"/>
<path d="M189.11 124.78C191.678 124.78 193.76 122.699 193.76 120.13C193.76 117.562 191.678 115.48 189.11 115.48C186.542 115.48 184.46 117.562 184.46 120.13C184.46 122.699 186.542 124.78 189.11 124.78Z" fill="#676767"/>
<path d="M214.32 124.78C216.888 124.78 218.97 122.699 218.97 120.13C218.97 117.562 216.888 115.48 214.32 115.48C211.752 115.48 209.67 117.562 209.67 120.13C209.67 122.699 211.752 124.78 214.32 124.78Z" fill="#676767"/>
<path d="M237.23 124.78C239.798 124.78 241.88 122.699 241.88 120.13C241.88 117.562 239.798 115.48 237.23 115.48C234.662 115.48 232.58 117.562 232.58 120.13C232.58 122.699 234.662 124.78 237.23 124.78Z" fill="#676767"/>
<path d="M351.32 125.55C354.739 125.55 357.51 122.779 357.51 119.36C357.51 115.941 354.739 113.17 351.32 113.17C347.901 113.17 345.13 115.941 345.13 119.36C345.13 122.779 347.901 125.55 351.32 125.55Z" fill="#676767"/>
<path d="M326.95 131.1C333.434 131.1 338.69 125.844 338.69 119.36C338.69 112.876 333.434 107.62 326.95 107.62C320.466 107.62 315.21 112.876 315.21 119.36C315.21 125.844 320.466 131.1 326.95 131.1Z" fill="#333434"/>
<path d="M326.95 125.55C330.369 125.55 333.14 122.779 333.14 119.36C333.14 115.941 330.369 113.17 326.95 113.17C323.531 113.17 320.76 115.941 320.76 119.36C320.76 122.779 323.531 125.55 326.95 125.55Z" fill="#676767"/>
<path d="M419.72 125.55C423.139 125.55 425.91 122.779 425.91 119.36C425.91 115.941 423.139 113.17 419.72 113.17C416.301 113.17 413.53 115.941 413.53 119.36C413.53 122.779 416.301 125.55 419.72 125.55Z" fill="#676767"/>
<path d="M311.22 112.64H268.58V121.93H311.22V112.64Z" fill="#676767"/>
<path d="M396.17 106.45H383.78V113.68H396.17V106.45Z" fill="#676767"/>
<path d="M396.17 114.71H383.78V121.94H396.17V114.71Z" fill="#676767"/>
<path d="M375.51 107.48H365.19V121.93H375.51V107.48Z" fill="#676767"/>
<path d="M380.68 107.48H377.58V121.93H380.68V107.48Z" fill="#676767"/>
<path d="M412.35 67.54H403.3C402.306 67.54 401.5 68.3459 401.5 69.34V79.44C401.5 80.4342 402.306 81.24 403.3 81.24H412.35C413.344 81.24 414.15 80.4342 414.15 79.44V69.34C414.15 68.3459 413.344 67.54 412.35 67.54Z" fill="#333434"/>
<path d="M447.88 85.32V88.81C447.664 88.9839 447.411 89.1059 447.141 89.1666C446.87 89.2273 446.59 89.225 446.32 89.16L418 82.36C417.449 82.1734 416.975 81.809 416.652 81.324C416.33 80.839 416.178 80.2608 416.22 79.68V70.26C416.158 69.6105 416.352 68.9625 416.761 68.4543C417.171 67.9461 417.762 67.618 418.41 67.54H437.11L447.34 83.64C447.684 84.1332 447.873 84.7186 447.88 85.32Z" fill="#333434"/>
<path d="M421.52 57H402.55V61.22H421.52V57Z" fill="#333434"/>
<path d="M186.88 105.67L141 122.41V111.87L167.04 102.57" fill="#333434"/>
<path d="M399.56 108.15H398.42V124.89H399.56V108.15Z" fill="#333434"/>
</g>
<g clip-path="url(#clip2_234_125)">
<path d="M306.29 39.8301H178.32C164.888 39.8301 154 50.7185 154 64.1501V70.4901C154 83.9216 164.888 94.8101 178.32 94.8101H306.29C319.722 94.8101 330.61 83.9216 330.61 70.4901V64.1501C330.61 50.7185 319.722 39.8301 306.29 39.8301Z" fill="#1A1A1A"/>
<path d="M209.82 93.9805H183.16V102.99H209.82V93.9805Z" fill="#1A1A1A"/>
<path d="M204.82 34H188.16V37.33H204.82V34Z" fill="#1A1A1A"/>
<path d="M250.64 34H233.98V37.33H250.64V34Z" fill="#1A1A1A"/>
<path d="M298.96 34H282.3V37.33H298.96V34Z" fill="#1A1A1A"/>
<path d="M255.64 93.9805H228.98V102.99H255.64V93.9805Z" fill="#1A1A1A"/>
<path d="M302.29 93.9805H275.63V102.99H302.29V93.9805Z" fill="#1A1A1A"/>
</g>
<g clip-path="url(#clip3_234_125)">
<path d="M581.02 131H0V145.73H581.02V131Z" fill="url(#paint0_linear_234_125)"/>
</g>
<defs>
<linearGradient id="paint0_linear_234_125" x1="581.02" y1="138.37" x2="0" y2="138.37" gradientUnits="userSpaceOnUse">
<stop offset="0.14" stop-color="#CCCCCC"/>
<stop offset="0.29" stop-color="#CCCCCC" stop-opacity="0.98"/>
<stop offset="0.42" stop-color="#CDCECE" stop-opacity="0.94"/>
<stop offset="0.53" stop-color="#CFCFD0" stop-opacity="0.86"/>
<stop offset="0.64" stop-color="#D1D2D2" stop-opacity="0.74"/>
<stop offset="0.74" stop-color="#D4D6D6" stop-opacity="0.59"/>
<stop offset="0.83" stop-color="#D7DADB" stop-opacity="0.41"/>
<stop offset="0.93" stop-color="#DBDFE0" stop-opacity="0.2"/>
<stop offset="1" stop-color="#DFE4E5" stop-opacity="0"/>
</linearGradient>
<clipPath id="clip0_234_125">
<rect width="96" height="131" fill="white" transform="translate(510)"/>
</clipPath>
<clipPath id="clip1_234_125">
<rect width="307.26" height="74.09" fill="white" transform="translate(141 57)"/>
</clipPath>
<clipPath id="clip2_234_125">
<rect width="176.61" height="68.99" fill="white" transform="translate(154 34)"/>
</clipPath>
<clipPath id="clip3_234_125">
<rect width="581.02" height="14.73" fill="white" transform="translate(0 131)"/>
</clipPath>
</defs>
</svg>
