<svg xmlns="http://www.w3.org/2000/svg" viewBox="0 0 15.4 15.42"><title>презентация oversize</title><g id="Слой_1" data-name="Слой 1"><path d="M15.4,12.09,15.34,12a2.7,2.7,0,0,0-.15-.29A6,6,0,0,0,14,10.44,10.82,10.82,0,0,0,11.9,9l-.16-.07-.11,0a1,1,0,0,0-1.34.36c-.19.24-.36.51-.53.77l-.27.41-.36.49L9.05,11c0,.05-.07.08-.15,0l-.27-.14-.39-.2A9.67,9.67,0,0,1,5.92,8.77,8.38,8.38,0,0,1,4.46,6.7c-.15-.31-.15-.31.13-.5l.54-.36.57-.37A5.07,5.07,0,0,0,6.34,5a.92.92,0,0,0,.22-1.08.69.69,0,0,1,0-.13c0-.09-.07-.18-.12-.27A9.09,9.09,0,0,0,5.13,1.6,14.15,14.15,0,0,0,4,.43,1.28,1.28,0,0,0,2.33.22,5.21,5.21,0,0,0,.57,1.71,2.33,2.33,0,0,0,0,3a6.16,6.16,0,0,0,0,1.18A9.75,9.75,0,0,0,.91,7,14.64,14.64,0,0,0,3.39,10.7a15.43,15.43,0,0,0,5.07,3.82,9.44,9.44,0,0,0,2.33.76l.62.1.27,0h.9a4.54,4.54,0,0,0,2.7-2.52,2.41,2.41,0,0,0,.08-.25.49.49,0,0,0,0-.11v-.45ZM3.07,1A.43.43,0,0,1,3.3,1a6.68,6.68,0,0,1,1.15,1.2A9.4,9.4,0,0,1,5.6,4c.13.27.14.28-.09.45L5,4.82a5.39,5.39,0,0,0-.5.33,6.08,6.08,0,0,0-.75.58A.94.94,0,0,0,3.5,6.89a10.4,10.4,0,0,0,2.13,3,10.12,10.12,0,0,0,2.55,1.9l.37.17a.91.91,0,0,0,1.12-.19,4.87,4.87,0,0,0,.54-.69q.19-.27.36-.54c.11-.17.22-.35.34-.51.21-.31.22-.31.56-.14A10.14,10.14,0,0,1,14.27,12a.51.51,0,0,1,.09.67,4.38,4.38,0,0,1-1.51,1.64,1,1,0,0,1-.64.19h0a8.3,8.3,0,0,1-3-.66A14.28,14.28,0,0,1,4.1,10.08,13.78,13.78,0,0,1,1.81,6.67,8.74,8.74,0,0,1,1,4a5.22,5.22,0,0,1-.06-.93,1.63,1.63,0,0,1,.44-.9A4.37,4.37,0,0,1,2.88,1,.46.46,0,0,1,3.07,1Z"/></g></svg>